<svg xmlns="http://www.w3.org/2000/svg" version="1.1" xmlns:xlink="http://www.w3.org/1999/xlink" xmlns:svgjs="http://svgjs.dev/svgjs" width="1000" height="1000" viewBox="0 0 1000 1000"><rect width="1000" height="1000" fill="#000000"></rect><g transform="matrix(0.7,0,0,0.7,149.84897959183667,150.19913061224486)"><svg viewBox="0 0 343 343" data-background-color="#ffffff" preserveAspectRatio="xMidYMid meet" height="999" width="1000" xmlns="http://www.w3.org/2000/svg" xmlns:xlink="http://www.w3.org/1999/xlink"><g id="tight-bounds" transform="matrix(1,0,0,1,0.0740000000000407,0.07400000000001228)"><svg viewBox="0 0 342.85155851775386 342.85155851775386" height="342.85155851775386" width="342.85155851775386"><g><svg></svg></g><g><svg viewBox="0 0 342.85155851775386 342.85155851775386" height="342.85155851775386" width="342.85155851775386"><g><path d="M0 171.426c0-94.676 76.75-171.426 171.426-171.426 94.676 0 171.426 76.75 171.426 171.426 0 94.676-76.75 171.426-171.426 171.426-94.676 0-171.426-76.75-171.426-171.426zM171.426 340.022c93.113 0 168.596-75.483 168.596-168.596 0-93.113-75.483-168.596-168.596-168.596-93.113 0-168.596 75.483-168.596 168.596 0 93.113 75.483 168.596 168.596 168.596z" data-fill-palette-color="tertiary" fill="#ea3c12" stroke="transparent"></path><ellipse rx="164.56874808852186" ry="164.56874808852186" cx="171.42577925887693" cy="171.42577925887693" fill="#ea3c12" stroke="transparent" stroke-width="0" fill-opacity="1" data-fill-palette-color="tertiary"></ellipse></g><g transform="matrix(1,0,0,1,64.84655864529837,130.35056850736356)"><svg viewBox="0 0 213.1584412271571 82.15042150302675" height="82.15042150302675" width="213.1584412271571"><g><svg viewBox="0 0 213.1584412271571 82.15042150302675" height="82.15042150302675" width="213.1584412271571"><g><svg viewBox="0 0 213.1584412271571 82.15042150302675" height="82.15042150302675" width="213.1584412271571"><g transform="matrix(1,0,0,1,0,50.772256200328606)"><svg viewBox="0 0 213.1584412271571 31.378165302698147" height="31.378165302698147" width="213.1584412271571"><g id="textblocktransform"><svg viewBox="0 0 213.1584412271571 31.378165302698147" height="31.378165302698147" width="213.1584412271571" id="textblock"><g><svg viewBox="0 0 213.1584412271571 31.378165302698147" height="31.378165302698147" width="213.1584412271571"><g transform="matrix(1,0,0,1,0,0)"><svg width="213.1584412271571" viewBox="1.309583306312561 -33.939998626708984 302.8204345703125 44.57999801635742" height="31.378165302698147" data-palette-color="#ffffff"><path d="M28.56-14.11L28.56-25.59Q28.56-28.37 27.93-29.1L27.93-29.1Q27.49-29.64 26.1-30.08 24.71-30.52 24.12-30.52L24.12-30.52Q23.93-30.52 23.88-31.32 23.83-32.13 23.97-32.32L23.97-32.32Q28.47-31.93 30.42-31.93L30.42-31.93Q31.64-31.93 33.76-32.1 35.89-32.28 36.47-32.32L36.47-32.32Q36.67-31.93 36.67-31.45L36.67-31.45Q36.67-30.52 36.43-30.52L36.43-30.52Q33.74-30.52 32.37-28.91L32.37-28.91Q31.69-28.08 31.69-25.34L31.69-25.34 31.69-6.79Q31.69-5.03 31.88 0.05L31.88 0.05Q31.69 0.24 30.66 0.24L30.66 0.24Q30.08 0.24 29.15-0.88L29.15-0.88 9.28-25.59 9.28-6.88Q9.28-4.2 9.67-3.42L9.67-3.42Q10.11-2.59 11.72-2.12 13.33-1.66 14.06-1.66L14.06-1.66Q14.21-1.66 14.23-0.83 14.26 0 14.16 0.2L14.16 0.2Q13.72 0.2 11.28 0 8.84-0.2 7.57-0.2 6.3-0.2 4.35-0.02 2.39 0.15 1.51 0.2L1.51 0.2Q1.37 0.05 1.37-0.68L1.37-0.68Q1.37-1.61 1.51-1.61L1.51-1.61Q2-1.61 2.64-1.71 3.27-1.81 4.25-2.27 5.22-2.73 5.66-3.47L5.66-3.47Q6.15-4.25 6.15-7.03L6.15-7.03 6.15-26.22Q6.15-28.76 5.42-29.69L5.42-29.69Q5.18-30.03 3.71-30.27 2.25-30.52 1.56-30.52L1.56-30.52Q1.37-30.52 1.32-31.32 1.27-32.13 1.46-32.32L1.46-32.32Q2.25-32.28 4.57-32.1 6.88-31.93 8.15-31.93L8.15-31.93Q9.81-31.93 12.94-32.32L12.94-32.32Q13.77-30.66 16.19-27.51 18.6-24.37 22.41-19.73 26.22-15.09 28.47-12.11L28.47-12.11Q28.56-12.45 28.56-14.11L28.56-14.11ZM48.24-3.17L48.24-3.17Q49.51-3.17 50.22-3.78 50.93-4.39 50.93-5.27L50.93-5.27 50.93-10.21Q50.83-10.16 49.97-9.89 49.12-9.62 48.87-9.52 48.63-9.42 47.95-9.16 47.26-8.89 46.99-8.67 46.73-8.45 46.34-8.11 45.94-7.76 45.8-7.37 45.65-6.98 45.65-6.49L45.65-6.49Q45.65-4.74 46.41-3.96 47.17-3.17 48.24-3.17ZM50.19-21.92L50.19-21.92Q53.61-21.92 55.44-20.04 57.27-18.16 57.27-13.23L57.27-13.23 57.27-5.32Q57.27-3.66 58.44-3.66L58.44-3.66Q59.27-3.66 60.1-4.3L60.1-4.3Q60.45-4.1 60.45-3.56L60.45-3.56Q60.45-2.34 60.1-1.76L60.1-1.76Q59.42-1.12 57.88-0.42 56.35 0.29 54.98 0.29L54.98 0.29Q53.81 0.29 52.73-0.42 51.66-1.12 51.32-2.05L51.32-2.05Q51.27-2.05 50.93-1.78 50.58-1.51 50.05-1.17 49.51-0.83 48.8-0.49 48.09-0.15 47.12 0.1 46.14 0.34 45.16 0.34L45.16 0.34Q42.48 0.34 40.89-1.15 39.3-2.64 39.3-4.88L39.3-4.88Q39.3-6.2 39.91-7.3 40.52-8.4 41.33-9.11 42.14-9.81 43.5-10.42 44.87-11.04 45.85-11.35 46.82-11.67 48.36-12.08 49.9-12.5 50.49-12.7L50.49-12.7Q50.93-12.84 50.93-13.43L50.93-13.43 50.93-15.19Q50.93-19.19 48.48-19.19L48.48-19.19Q45.65-19.19 45.65-15.92L45.65-15.92Q45.65-14.84 44.77-14.33 43.89-13.82 42.82-13.82L42.82-13.82Q40.57-13.82 39.74-15.28L39.74-15.28Q39.74-17.77 43.04-19.85 46.34-21.92 50.19-21.92ZM81.29-18.8L81.29-18.8Q80.27-19.82 78.07-19.82L78.07-19.82Q77.92-19.87 77.92-20.61 77.92-21.34 78.02-21.63L78.02-21.63Q78.75-21.58 80.68-21.41 82.61-21.24 83.69-21.24L83.69-21.24Q84.86-21.24 86.69-21.41 88.52-21.58 89.3-21.63L89.3-21.63Q89.5-21.44 89.5-20.8L89.5-20.8Q89.5-19.82 89.3-19.82L89.3-19.82Q88.57-19.82 87.25-19.31 85.93-18.8 85.44-17.87L85.44-17.87 76.85-0.88Q76.12 0.54 75.39 0.54L75.39 0.54Q74.8 0.54 74.6 0.15L74.6 0.15 66.5-18.12Q66.11-19.04 64.96-19.43 63.81-19.82 63.08-19.82L63.08-19.82Q62.89-19.82 62.89-20.8L62.89-20.8Q62.89-21.39 63.08-21.63L63.08-21.63Q63.62-21.58 66.13-21.41 68.65-21.24 69.77-21.24L69.77-21.24Q70.99-21.24 73.65-21.44 76.31-21.63 76.75-21.63L76.75-21.63Q76.95-21.44 76.95-20.63 76.95-19.82 76.75-19.82L76.75-19.82Q76.02-19.82 74.73-19.43 73.43-19.04 73.43-18.51L73.43-18.51 73.53-17.77 77.39-8.59 81.25-16.7Q81.98-18.12 81.29-18.8ZM102.43-19.14L102.43-19.14Q100.53-19.14 99.65-17.31 98.77-15.48 98.77-13.72L98.77-13.72Q98.77-13.43 99.11-13.43L99.11-13.43 105.31-13.43Q106-13.43 106-14.36L106-14.36Q106-16.21 105-17.68 104-19.14 102.43-19.14ZM102.68-21.83L102.68-21.83Q107.07-21.83 109.73-18.77 112.39-15.72 112.39-12.55L112.39-12.55Q112.39-11.43 111.93-11.08 111.47-10.74 110.1-10.74L110.1-10.74 99.06-10.74Q98.77-10.74 98.77-10.4L98.77-10.4Q98.77-7.76 100.26-5.66 101.75-3.56 104.53-3.56L104.53-3.56Q106.14-3.56 107.61-4.03 109.07-4.49 109.66-4.86 110.25-5.22 111.22-5.96L111.22-5.96Q111.66-5.76 111.66-5.03L111.66-5.03Q111.66-4.44 111.47-4.05L111.47-4.05Q110.98-2.88 108.54-1.27 106.1 0.34 103.07 0.34L103.07 0.34Q98.58 0.34 95.33-2.93 92.08-6.2 92.08-10.79L92.08-10.79Q92.08-15.48 95.01-18.65 97.94-21.83 102.68-21.83ZM124.99-19.14L124.99-19.14Q123.09-19.14 122.21-17.31 121.33-15.48 121.33-13.72L121.33-13.72Q121.33-13.43 121.67-13.43L121.67-13.43 127.87-13.43Q128.55-13.43 128.55-14.36L128.55-14.36Q128.55-16.21 127.55-17.68 126.55-19.14 124.99-19.14ZM125.23-21.83L125.23-21.83Q129.63-21.83 132.29-18.77 134.95-15.72 134.95-12.55L134.95-12.55Q134.95-11.43 134.49-11.08 134.02-10.74 132.66-10.74L132.66-10.74 121.62-10.74Q121.33-10.74 121.33-10.4L121.33-10.4Q121.33-7.76 122.82-5.66 124.31-3.56 127.09-3.56L127.09-3.56Q128.7-3.56 130.17-4.03 131.63-4.49 132.22-4.86 132.8-5.22 133.78-5.96L133.78-5.96Q134.22-5.76 134.22-5.03L134.22-5.03Q134.22-4.44 134.02-4.05L134.02-4.05Q133.53-2.88 131.09-1.27 128.65 0.34 125.62 0.34L125.62 0.34Q121.13 0.34 117.89-2.93 114.64-6.2 114.64-10.79L114.64-10.79Q114.64-15.48 117.57-18.65 120.5-21.83 125.23-21.83ZM154.82-21.78L154.82-21.78Q157.65-21.78 159.44-19.38 161.22-16.99 161.22-12.11L161.22-12.11 161.22-7.28Q161.22-4.15 161.56-2.83L161.56-2.83Q161.66-2.49 162.93-2.05 164.2-1.61 164.64-1.61L164.64-1.61Q164.78-1.61 164.81-0.81 164.83 0 164.73 0.2L164.73 0.2Q164.2 0.15 161.68-0.02 159.17-0.2 158.04-0.2L158.04-0.2Q156.87-0.2 154.5-0.02 152.14 0.15 151.55 0.2L151.55 0.2Q151.35 0 151.35-0.81 151.35-1.61 151.55-1.61L151.55-1.61Q152.09-1.61 153.26-2.05 154.43-2.49 154.53-2.83L154.53-2.83Q154.87-4.3 154.87-6.54L154.87-6.54 154.87-10.94Q154.87-14.55 153.87-16.09 152.87-17.63 150.67-17.63L150.67-17.63Q149.16-17.63 148.23-17.07 147.3-16.5 147.3-15.48L147.3-15.48 147.3-7.28Q147.3-4.15 147.64-2.83L147.64-2.83Q147.74-2.49 148.94-2.05 150.13-1.61 150.52-1.61L150.52-1.61Q150.67-1.61 150.7-0.81 150.72 0 150.62 0.2L150.62 0.2Q150.04 0.15 147.64-0.02 145.25-0.2 144.13-0.2L144.13-0.2Q142.96-0.2 140.47-0.02 137.98 0.15 137.44 0.2L137.44 0.2Q137.24 0 137.24-0.81 137.24-1.61 137.44-1.61L137.44-1.61Q137.98-1.61 139.25-2.05 140.51-2.49 140.61-2.83L140.61-2.83Q140.95-4.3 140.95-6.54L140.95-6.54 140.95-13.23Q140.95-15.97 140.08-16.89L140.08-16.89Q139.73-17.29 139.05-17.53 138.37-17.77 137.88-17.87 137.39-17.97 137.39-18.02L137.39-18.02Q137.39-19.73 137.63-19.73L137.63-19.73Q138.22-19.73 139.59-20 140.95-20.26 143.15-20.75 145.35-21.24 146.57-21.48L146.57-21.48Q146.67-21.48 146.79-21.53 146.91-21.58 147.01-21.58L147.01-21.58 147.11-21.63Q147.35-21.63 147.59-21.31 147.84-21 147.84-20.8L147.84-20.8Q147.64-19.43 147.64-19.29L147.64-19.29Q147.64-19.04 147.69-18.99L147.69-18.99Q147.79-18.99 148.03-19.24L148.03-19.24Q150.77-21.78 154.82-21.78ZM180.99-29.54L180.99-29.54Q179.28-29.54 178.74-29.15 178.21-28.76 178.16-24.37L178.16-24.37 178.16-19.09Q178.16-18.36 178.33-17.92 178.5-17.48 178.84-17.29 179.18-17.09 179.48-17.04 179.77-16.99 180.21-16.99L180.21-16.99 181.53-16.99Q183.43-16.99 184.48-18.65 185.53-20.31 185.53-23.05L185.53-23.05Q185.53-29.54 180.99-29.54ZM181.72-32.23L181.72-32.23Q183.38-32.23 185.19-31.81 187-31.4 188.8-30.52 190.61-29.64 191.78-27.95 192.95-26.27 192.95-24.02L192.95-24.02Q192.95-20.75 191.05-18.31 189.15-15.87 186.95-15.14L186.95-15.14Q186.56-14.99 186.8-14.6L186.8-14.6Q187.88-12.79 188.63-11.6 189.39-10.4 190.44-8.96 191.49-7.52 192.12-6.59L192.12-6.59Q193.34-4.79 195.32-3.2 197.3-1.61 199.15-1.61L199.15-1.61Q199.35-1.37 199.35-0.73L199.35-0.73Q199.35-0.2 199.15 0.24L199.15 0.24Q198.47 0.34 197.45 0.34L197.45 0.34Q195.05 0.34 193.08-0.12 191.1-0.59 189.9-1.17 188.71-1.76 187.51-2.93 186.31-4.1 185.73-4.88 185.14-5.66 184.16-7.18L184.16-7.18Q183.68-7.96 182.9-9.18 182.11-10.4 181.65-11.11 181.19-11.82 180.65-12.6 180.11-13.38 179.75-13.77 179.38-14.16 179.14-14.26L179.14-14.26Q178.99-14.31 178.6-14.31L178.6-14.31Q178.16-14.31 178.16-13.53L178.16-13.53 178.16-6.88Q178.16-4.39 178.5-2.88L178.5-2.88Q178.65-2.29 180.11-1.95 181.58-1.61 182.31-1.61L182.31-1.61Q182.5-1.61 182.5-0.68L182.5-0.68Q182.5-0.1 182.41 0.2L182.41 0.2Q176.55-0.1 174.94-0.1L174.94-0.1 167.81 0.2Q167.61 0 167.61-0.63L167.61-0.63Q167.61-1.61 167.81-1.61L167.81-1.61Q168.39-1.61 169.64-1.95 170.88-2.29 171.03-2.69L171.03-2.69Q171.32-3.81 171.32-6.98L171.32-6.98 171.32-25.44Q171.32-28.13 171.03-29.25L171.03-29.25Q170.88-29.64 169.59-30.13 168.3-30.62 167.76-30.62L167.76-30.62Q167.56-30.62 167.56-31.49L167.56-31.49Q167.56-32.28 167.71-32.42L167.71-32.42Q172.2-32.18 174.89-32.18L174.89-32.18Q176.21-32.18 178.23-32.2 180.26-32.23 181.72-32.23ZM212.53-19.14L212.53-19.14Q210.63-19.14 209.75-17.31 208.87-15.48 208.87-13.72L208.87-13.72Q208.87-13.43 209.21-13.43L209.21-13.43 215.41-13.43Q216.1-13.43 216.1-14.36L216.1-14.36Q216.1-16.21 215.09-17.68 214.09-19.14 212.53-19.14ZM212.78-21.83L212.78-21.83Q217.17-21.83 219.83-18.77 222.49-15.72 222.49-12.55L222.49-12.55Q222.49-11.43 222.03-11.08 221.56-10.74 220.2-10.74L220.2-10.74 209.16-10.74Q208.87-10.74 208.87-10.4L208.87-10.4Q208.87-7.76 210.36-5.66 211.85-3.56 214.63-3.56L214.63-3.56Q216.24-3.56 217.71-4.03 219.17-4.49 219.76-4.86 220.34-5.22 221.32-5.96L221.32-5.96Q221.76-5.76 221.76-5.03L221.76-5.03Q221.76-4.44 221.56-4.05L221.56-4.05Q221.08-2.88 218.63-1.27 216.19 0.34 213.17 0.34L213.17 0.34Q208.67 0.34 205.43-2.93 202.18-6.2 202.18-10.79L202.18-10.79Q202.18-15.48 205.11-18.65 208.04-21.83 212.78-21.83ZM235.77-19.19L235.77-19.19Q233.48-19.19 232.43-17.36 231.38-15.53 231.38-11.52L231.38-11.52Q231.38-2.69 235.77-2.69L235.77-2.69Q237.43-2.69 238.53-3.64 239.63-4.59 239.63-5.96L239.63-5.96 239.63-14.84Q239.63-15.43 239.53-15.97 239.43-16.5 239.09-17.33 238.75-18.16 237.9-18.68 237.04-19.19 235.77-19.19ZM236.06-21.83L236.06-21.83Q238.07-21.83 239.48-21.39L239.48-21.39Q239.63-21.39 239.63-22.07L239.63-22.07 239.63-25.93Q239.63-27.98 239.34-29.44L239.34-29.44Q239.09-30.22 236.8-30.22L236.8-30.22 236.36-30.22Q236.06-30.22 236.06-31.2L236.06-31.2Q236.06-32.03 236.36-32.03L236.36-32.03Q237.87-32.18 239.41-32.42 240.95-32.67 242.02-32.91 243.1-33.15 243.95-33.4 244.8-33.64 245.29-33.79L245.29-33.79 245.78-33.94 245.88-33.94Q246.07-33.94 246.27-33.64 246.46-33.35 246.51-33.11L246.51-33.11Q245.98-30.91 245.98-28.17L245.98-28.17 245.98-7.18Q245.98-5.08 246.27-3.66L246.27-3.66Q246.37-3.32 246.81-3.13 247.25-2.93 247.73-2.88 248.22-2.83 248.66-2.83L248.66-2.83 249.15-2.78Q249.3-2.73 249.3-2.2L249.3-2.2Q249.3-0.98 249-0.98L249-0.98Q248.27-0.93 247.07-0.78 245.88-0.63 244.68-0.46 243.49-0.29 242.41-0.12 241.34 0.05 240.65 0.2L240.65 0.2 239.92 0.29Q239.63 0.29 239.63-0.54L239.63-0.54 239.63-1.56Q239.63-1.76 239.58-1.81 239.53-1.86 239.43-1.76L239.43-1.76Q237.38 0.29 234.5 0.29L234.5 0.29Q230.55 0.29 227.45-2.66 224.35-5.62 224.35-10.35L224.35-10.35Q224.35-15.23 227.69-18.53 231.03-21.83 236.06-21.83ZM262.82-19.19L262.82-19.19Q260.52-19.19 259.47-17.36 258.42-15.53 258.42-11.52L258.42-11.52Q258.42-2.69 262.82-2.69L262.82-2.69Q264.48-2.69 265.58-3.64 266.68-4.59 266.68-5.96L266.68-5.96 266.68-14.84Q266.68-15.43 266.58-15.97 266.48-16.5 266.14-17.33 265.8-18.16 264.94-18.68 264.09-19.19 262.82-19.19ZM263.11-21.83L263.11-21.83Q265.11-21.83 266.53-21.39L266.53-21.39Q266.68-21.39 266.68-22.07L266.68-22.07 266.68-25.93Q266.68-27.98 266.38-29.44L266.38-29.44Q266.14-30.22 263.84-30.22L263.84-30.22 263.41-30.22Q263.11-30.22 263.11-31.2L263.11-31.2Q263.11-32.03 263.41-32.03L263.41-32.03Q264.92-32.18 266.46-32.42 268-32.67 269.07-32.91 270.14-33.15 271-33.4 271.85-33.64 272.34-33.79L272.34-33.79 272.83-33.94 272.93-33.94Q273.12-33.94 273.32-33.64 273.51-33.35 273.56-33.11L273.56-33.11Q273.02-30.91 273.02-28.17L273.02-28.17 273.02-7.18Q273.02-5.08 273.32-3.66L273.32-3.66Q273.42-3.32 273.85-3.13 274.29-2.93 274.78-2.88 275.27-2.83 275.71-2.83L275.71-2.83 276.2-2.78Q276.34-2.73 276.34-2.2L276.34-2.2Q276.34-0.98 276.05-0.98L276.05-0.98Q275.32-0.93 274.12-0.78 272.93-0.63 271.73-0.46 270.53-0.29 269.46-0.12 268.39 0.05 267.7 0.2L267.7 0.2 266.97 0.29Q266.68 0.29 266.68-0.54L266.68-0.54 266.68-1.56Q266.68-1.76 266.63-1.81 266.58-1.86 266.48-1.76L266.48-1.76Q264.43 0.29 261.55 0.29L261.55 0.29Q257.59 0.29 254.49-2.66 251.39-5.62 251.39-10.35L251.39-10.35Q251.39-15.23 254.74-18.53 258.08-21.83 263.11-21.83ZM284.79-21.24L284.79-21.24Q285.86-21.24 288.26-21.41 290.65-21.58 291.19-21.63L291.19-21.63Q291.33-21.19 291.33-20.61L291.33-20.61Q291.33-19.82 291.14-19.82L291.14-19.82Q290.5-19.82 289.31-19.43 288.11-19.04 288.11-18.55L288.11-18.55 288.16-18.12Q288.26-17.33 291.97-8.59L291.97-8.59Q295.29-15.77 295.58-16.5L295.58-16.5Q295.87-17.19 295.87-17.97L295.87-17.97Q295.87-18.26 295.6-18.65 295.34-19.04 294.51-19.43 293.68-19.82 292.41-19.82L292.41-19.82Q292.21-19.82 292.21-20.7L292.21-20.7Q292.21-21.34 292.31-21.63L292.31-21.63Q292.89-21.58 295.21-21.41 297.53-21.24 298.71-21.24L298.71-21.24Q299.73-21.24 301.44-21.41 303.15-21.58 303.93-21.63L303.93-21.63Q304.13-21.24 304.13-20.8L304.13-20.8Q304.13-19.82 303.93-19.82L303.93-19.82Q303.2-19.82 301.76-19.34 300.32-18.85 299.83-17.87L299.83-17.87 290.75 1.81Q286.69 10.64 281.27 10.64L281.27 10.64Q279.81 10.64 278.91 9.86 278 9.08 278 8.06L278 8.06Q278 6.54 279.13 5.76L279.13 5.76Q285.33 5.76 287.18 1.95L287.18 1.95Q288.31-0.44 288.7-1.27L288.7-1.27 281.42-17.38 281.18-17.97Q280.69-18.99 279.69-19.41 278.69-19.82 277.95-19.82L277.95-19.82Q277.76-19.82 277.76-20.56L277.76-20.56Q277.76-21.53 277.86-21.63L277.86-21.63Q278.25-21.63 280.93-21.44 283.62-21.24 284.79-21.24Z" opacity="1" transform="matrix(1,0,0,1,0,0)" fill="#ffffff" class="undefined-text-0" data-fill-palette-color="quaternary" id="text-0"></path></svg></g></svg></g></svg></g></svg></g><g transform="matrix(1,0,0,1,87.82230298608012,0)"><svg viewBox="0 0 37.51383525499687 43.36462444832884" height="43.36462444832884" width="37.51383525499687"><g><svg xmlns="http://www.w3.org/2000/svg" xmlns:xlink="http://www.w3.org/1999/xlink" version="1.1" x="0" y="0" viewBox="17.299999237060547 12.199999809265137 65.39999389648438 75.60000610351562" style="enable-background:new 0 0 100 100;" xml:space="preserve" height="43.36462444832884" width="37.51383525499687" class="icon-icon-0" data-fill-palette-color="quaternary" id="icon-0"><path d="M50 12.2L17.3 31.1v37.8L50 87.8l32.7-18.9V31.1L50 12.2zM32.1 37.4L50 16l17 21.4H32.1zM67.3 39.4L50 70.4l-18.2-31H67.3zM48.1 71l-27.7-4.5 9.8-25.9L48.1 71zM68.9 40.7l10.7 25.9-27.7 4.5L68.9 40.7zM69.2 37.1L52.6 16l27 15.6L69.2 37.1zM29.8 37.1l-9.4-5.5 26.8-15.5L29.8 37.1zM28.8 38.8l-9.5 25V33.3L28.8 38.8zM49 73.2v11.7L20.9 68.7 49 73.2zM51 73.2l28.1-4.5L51 84.9V73.2zM70.3 38.8l10.5-5.6v30.9L70.3 38.8z" fill="#ffffff" data-fill-palette-color="quaternary"></path></svg></g></svg></g><g></g></svg></g></svg></g></svg></g></svg></g><defs></defs></svg><rect width="342.85155851775386" height="342.85155851775386" fill="none" stroke="none" visibility="hidden"></rect></g></svg></g></svg>