<svg xmlns="http://www.w3.org/2000/svg" version="1.1" xmlns:xlink="http://www.w3.org/1999/xlink" xmlns:svgjs="http://svgjs.dev/svgjs" width="1000" height="1000" viewBox="0 0 1000 1000"><rect width="1000" height="1000" fill="#000000"></rect><g transform="matrix(0.7,0,0,0.7,149.84897959183667,150.19913061224486)"><svg viewBox="0 0 343 343" data-background-color="#ffffff" preserveAspectRatio="xMidYMid meet" height="999" width="1000" xmlns="http://www.w3.org/2000/svg" xmlns:xlink="http://www.w3.org/1999/xlink"><g id="tight-bounds" transform="matrix(1,0,0,1,0.0740000000000407,0.07400000000001228)"><svg viewBox="0 0 342.85155851775386 342.85155851775386" height="342.85155851775386" width="342.85155851775386"><g><svg></svg></g><g><svg viewBox="0 0 342.85155851775386 342.85155851775386" height="342.85155851775386" width="342.85155851775386"><g><path d="M0 171.426c0-94.676 76.75-171.426 171.426-171.426 94.676 0 171.426 76.75 171.426 171.426 0 94.676-76.75 171.426-171.426 171.426-94.676 0-171.426-76.75-171.426-171.426zM171.426 338.988c92.542 0 167.563-75.02 167.562-167.562 0-92.542-75.02-167.563-167.562-167.563-92.542 0-167.563 75.02-167.563 167.563 0 92.542 75.02 167.563 167.563 167.562z" data-fill-palette-color="tertiary" fill="#ea3c12" stroke="transparent"></path><ellipse rx="164.56874808852186" ry="164.56874808852186" cx="171.42577925887693" cy="171.42577925887693" fill="#ea3c12" stroke="transparent" stroke-width="0" fill-opacity="1" data-fill-palette-color="tertiary"></ellipse></g><g transform="matrix(1,0,0,1,64.84655864529837,115.34931239847063)"><svg viewBox="0 0 213.1584412271571 112.1529337208126" height="112.1529337208126" width="213.1584412271571"><g><svg viewBox="0 0 213.1584412271571 112.1529337208126" height="112.1529337208126" width="213.1584412271571"><g><svg viewBox="0 0 213.1584412271571 112.1529337208126" height="112.1529337208126" width="213.1584412271571"><g transform="matrix(1,0,0,1,0,69.31501239201519)"><svg viewBox="0 0 213.1584412271571 42.8379213287974" height="42.8379213287974" width="213.1584412271571"><g><svg viewBox="0 0 213.1584412271571 42.8379213287974" height="42.8379213287974" width="213.1584412271571"><g><svg viewBox="0 0 213.1584412271571 42.8379213287974" height="42.8379213287974" width="213.1584412271571"><g transform="matrix(1,0,0,1,0,0)"><svg width="213.1584412271571" viewBox="1.3095833333333333 -32.32 163.50374999999866 32.86" height="42.8379213287974" data-palette-color="#ffffff"><path d="M28.56-14.11L28.56-25.59Q28.56-28.37 27.93-29.1L27.93-29.1Q27.49-29.64 26.1-30.08 24.71-30.52 24.12-30.52L24.12-30.52Q23.93-30.52 23.88-31.32 23.83-32.13 23.97-32.32L23.97-32.32Q28.47-31.93 30.42-31.93L30.42-31.93Q31.64-31.93 33.76-32.1 35.89-32.28 36.47-32.32L36.47-32.32Q36.67-31.93 36.67-31.45L36.67-31.45Q36.67-30.52 36.43-30.52L36.43-30.52Q33.74-30.52 32.37-28.91L32.37-28.91Q31.69-28.08 31.69-25.34L31.69-25.34 31.69-6.79Q31.69-5.03 31.88 0.05L31.88 0.05Q31.69 0.24 30.66 0.24L30.66 0.24Q30.08 0.24 29.15-0.88L29.15-0.88 9.28-25.59 9.28-6.88Q9.28-4.2 9.67-3.42L9.67-3.42Q10.11-2.59 11.72-2.12 13.33-1.66 14.06-1.66L14.06-1.66Q14.21-1.66 14.23-0.83 14.26 0 14.16 0.2L14.16 0.2Q13.72 0.2 11.28 0 8.84-0.2 7.57-0.2 6.3-0.2 4.35-0.02 2.39 0.15 1.51 0.2L1.51 0.2Q1.37 0.05 1.37-0.68L1.37-0.68Q1.37-1.61 1.51-1.61L1.51-1.61Q2-1.61 2.64-1.71 3.27-1.81 4.25-2.27 5.22-2.73 5.66-3.47L5.66-3.47Q6.15-4.25 6.15-7.03L6.15-7.03 6.15-26.22Q6.15-28.76 5.42-29.69L5.42-29.69Q5.18-30.03 3.71-30.27 2.25-30.52 1.56-30.52L1.56-30.52Q1.37-30.52 1.32-31.32 1.27-32.13 1.46-32.32L1.46-32.32Q2.25-32.28 4.57-32.1 6.88-31.93 8.15-31.93L8.15-31.93Q9.81-31.93 12.94-32.32L12.94-32.32Q13.77-30.66 16.19-27.51 18.6-24.37 22.41-19.73 26.22-15.09 28.47-12.11L28.47-12.11Q28.56-12.45 28.56-14.11L28.56-14.11ZM48.24-3.17L48.24-3.17Q49.51-3.17 50.22-3.78 50.93-4.39 50.93-5.27L50.93-5.27 50.93-10.21Q50.83-10.16 49.97-9.89 49.12-9.62 48.87-9.52 48.63-9.42 47.95-9.16 47.26-8.89 46.99-8.67 46.73-8.45 46.34-8.11 45.94-7.76 45.8-7.37 45.65-6.98 45.65-6.49L45.65-6.49Q45.65-4.74 46.41-3.96 47.17-3.17 48.24-3.17ZM50.19-21.92L50.19-21.92Q53.61-21.92 55.44-20.04 57.27-18.16 57.27-13.23L57.27-13.23 57.27-5.32Q57.27-3.66 58.44-3.66L58.44-3.66Q59.27-3.66 60.1-4.3L60.1-4.3Q60.45-4.1 60.45-3.56L60.45-3.56Q60.45-2.34 60.1-1.76L60.1-1.76Q59.42-1.12 57.88-0.42 56.35 0.29 54.98 0.29L54.98 0.29Q53.81 0.29 52.73-0.42 51.66-1.12 51.32-2.05L51.32-2.05Q51.27-2.05 50.93-1.78 50.58-1.51 50.05-1.17 49.51-0.83 48.8-0.49 48.09-0.15 47.12 0.1 46.14 0.34 45.16 0.34L45.16 0.34Q42.48 0.34 40.89-1.15 39.3-2.64 39.3-4.88L39.3-4.88Q39.3-6.2 39.91-7.3 40.52-8.4 41.33-9.11 42.14-9.81 43.5-10.42 44.87-11.04 45.85-11.35 46.82-11.67 48.36-12.08 49.9-12.5 50.49-12.7L50.49-12.7Q50.93-12.84 50.93-13.43L50.93-13.43 50.93-15.19Q50.93-19.19 48.48-19.19L48.48-19.19Q45.65-19.19 45.65-15.92L45.65-15.92Q45.65-14.84 44.77-14.33 43.89-13.82 42.82-13.82L42.82-13.82Q40.57-13.82 39.74-15.28L39.74-15.28Q39.74-17.77 43.04-19.85 46.34-21.92 50.19-21.92ZM81.29-18.8L81.29-18.8Q80.27-19.82 78.07-19.82L78.07-19.82Q77.92-19.87 77.92-20.61 77.92-21.34 78.02-21.63L78.02-21.63Q78.75-21.58 80.68-21.41 82.61-21.24 83.69-21.24L83.69-21.24Q84.86-21.24 86.69-21.41 88.52-21.58 89.3-21.63L89.3-21.63Q89.5-21.44 89.5-20.8L89.5-20.8Q89.5-19.82 89.3-19.82L89.3-19.82Q88.57-19.82 87.25-19.31 85.93-18.8 85.44-17.87L85.44-17.87 76.85-0.88Q76.12 0.54 75.39 0.54L75.39 0.54Q74.8 0.54 74.6 0.15L74.6 0.15 66.5-18.12Q66.11-19.04 64.96-19.43 63.81-19.82 63.08-19.82L63.08-19.82Q62.89-19.82 62.89-20.8L62.89-20.8Q62.89-21.39 63.08-21.63L63.08-21.63Q63.62-21.58 66.13-21.41 68.65-21.24 69.77-21.24L69.77-21.24Q70.99-21.24 73.65-21.44 76.31-21.63 76.75-21.63L76.75-21.63Q76.95-21.44 76.95-20.63 76.95-19.82 76.75-19.82L76.75-19.82Q76.02-19.82 74.73-19.43 73.43-19.04 73.43-18.51L73.43-18.51 73.53-17.77 77.39-8.59 81.25-16.7Q81.98-18.12 81.29-18.8ZM102.43-19.14L102.43-19.14Q100.53-19.14 99.65-17.31 98.77-15.48 98.77-13.72L98.77-13.72Q98.77-13.43 99.11-13.43L99.11-13.43 105.31-13.43Q106-13.43 106-14.36L106-14.36Q106-16.21 105-17.68 104-19.14 102.43-19.14ZM102.68-21.83L102.68-21.83Q107.07-21.83 109.73-18.77 112.39-15.72 112.39-12.55L112.39-12.55Q112.39-11.43 111.93-11.08 111.47-10.74 110.1-10.74L110.1-10.74 99.06-10.74Q98.77-10.74 98.77-10.4L98.77-10.4Q98.77-7.76 100.26-5.66 101.75-3.56 104.53-3.56L104.53-3.56Q106.14-3.56 107.61-4.03 109.07-4.49 109.66-4.86 110.25-5.22 111.22-5.96L111.22-5.96Q111.66-5.76 111.66-5.03L111.66-5.03Q111.66-4.44 111.47-4.05L111.47-4.05Q110.98-2.88 108.54-1.27 106.1 0.34 103.07 0.34L103.07 0.34Q98.58 0.34 95.33-2.93 92.08-6.2 92.08-10.79L92.08-10.79Q92.08-15.48 95.01-18.65 97.94-21.83 102.68-21.83ZM124.99-19.14L124.99-19.14Q123.09-19.14 122.21-17.31 121.33-15.48 121.33-13.72L121.33-13.72Q121.33-13.43 121.67-13.43L121.67-13.43 127.87-13.43Q128.55-13.43 128.55-14.36L128.55-14.36Q128.55-16.21 127.55-17.68 126.55-19.14 124.99-19.14ZM125.23-21.83L125.23-21.83Q129.63-21.83 132.29-18.77 134.95-15.72 134.95-12.55L134.95-12.55Q134.95-11.43 134.49-11.08 134.02-10.74 132.66-10.74L132.66-10.74 121.62-10.74Q121.33-10.74 121.33-10.4L121.33-10.4Q121.33-7.76 122.82-5.66 124.31-3.56 127.09-3.56L127.09-3.56Q128.7-3.56 130.17-4.03 131.63-4.49 132.22-4.86 132.8-5.22 133.78-5.96L133.78-5.96Q134.22-5.76 134.22-5.03L134.22-5.03Q134.22-4.44 134.02-4.05L134.02-4.05Q133.53-2.88 131.09-1.27 128.65 0.34 125.62 0.34L125.62 0.34Q121.13 0.34 117.89-2.93 114.64-6.2 114.64-10.79L114.64-10.79Q114.64-15.48 117.57-18.65 120.5-21.83 125.23-21.83ZM154.82-21.78L154.82-21.78Q157.65-21.78 159.44-19.38 161.22-16.99 161.22-12.11L161.22-12.11 161.22-7.28Q161.22-4.15 161.56-2.83L161.56-2.83Q161.66-2.49 162.93-2.05 164.2-1.61 164.64-1.61L164.64-1.61Q164.78-1.61 164.81-0.81 164.83 0 164.73 0.2L164.73 0.2Q164.2 0.15 161.68-0.02 159.17-0.2 158.04-0.2L158.04-0.2Q156.87-0.2 154.5-0.02 152.14 0.15 151.55 0.2L151.55 0.2Q151.35 0 151.35-0.81 151.35-1.61 151.55-1.61L151.55-1.61Q152.09-1.61 153.26-2.05 154.43-2.49 154.53-2.83L154.53-2.83Q154.87-4.3 154.87-6.54L154.87-6.54 154.87-10.94Q154.87-14.55 153.87-16.09 152.87-17.63 150.67-17.63L150.67-17.63Q149.16-17.63 148.23-17.07 147.3-16.5 147.3-15.48L147.3-15.48 147.3-7.28Q147.3-4.15 147.64-2.83L147.64-2.83Q147.74-2.49 148.94-2.05 150.13-1.61 150.52-1.61L150.52-1.61Q150.67-1.61 150.7-0.81 150.72 0 150.62 0.2L150.62 0.2Q150.04 0.15 147.64-0.02 145.25-0.2 144.13-0.2L144.13-0.2Q142.96-0.2 140.47-0.02 137.98 0.15 137.44 0.2L137.44 0.2Q137.24 0 137.24-0.81 137.24-1.61 137.44-1.61L137.44-1.61Q137.98-1.61 139.25-2.05 140.51-2.49 140.61-2.83L140.61-2.83Q140.95-4.3 140.95-6.54L140.95-6.54 140.95-13.23Q140.95-15.97 140.08-16.89L140.08-16.89Q139.73-17.29 139.05-17.53 138.37-17.77 137.88-17.87 137.39-17.97 137.39-18.02L137.39-18.02Q137.39-19.73 137.63-19.73L137.63-19.73Q138.22-19.73 139.59-20 140.95-20.26 143.15-20.75 145.35-21.24 146.57-21.48L146.57-21.48Q146.67-21.48 146.79-21.53 146.91-21.58 147.01-21.58L147.01-21.58 147.11-21.63Q147.35-21.63 147.59-21.31 147.84-21 147.84-20.8L147.84-20.8Q147.64-19.43 147.64-19.29L147.64-19.29Q147.64-19.04 147.69-18.99L147.69-18.99Q147.79-18.99 148.03-19.24L148.03-19.24Q150.77-21.78 154.82-21.78Z" opacity="1" transform="matrix(1,0,0,1,0,0)" fill="#ffffff" class="undefined-text-0" data-fill-palette-color="quaternary" id="text-0"></path></svg></g></svg></g></svg></g></svg></g><g transform="matrix(1,0,0,1,77.49566179478227,0)"><svg viewBox="0 0 58.16711763759259 59.202007276398014" height="59.202007276398014" width="58.16711763759259"><g><svg xmlns="http://www.w3.org/2000/svg" xmlns:xlink="http://www.w3.org/1999/xlink" version="1.1" x="0" y="0" viewBox="132 125.30000000000001 736.3000000000005 749.4000000000001" style="enable-background:new 0 0 1000 1000;" xml:space="preserve" height="59.202007276398014" width="58.16711763759259" class="icon-icon-0" data-fill-palette-color="quaternary" id="icon-0"><g fill="#ffffff" data-fill-palette-color="quaternary"><path d="M661.8 226L637 215.3c-12.6-5.4-27.4 0.4-32.8 13l-36.9 85.7L269.8 185.9c-4.2-34.1-33.4-60.6-68.6-60.6-38.1 0-69.2 31-69.2 69.1 0 38.1 31 69.2 69.2 69.2 12.3 0 23.9-3.2 33.9-8.9l322.4 138.9 27.1 11.7c10.8 4.7 23.3 1 30-8.2 1.1-1.5 2-3.1 2.7-4.8l11.1-25.7 0.2-0.4 46.3-107.5C680.3 246.2 674.4 231.5 661.8 226zM201.2 231.9c-2.4 0-4.7-0.2-7-0.7-17.3-3.3-30.4-18.5-30.4-36.8 0-20.6 16.8-37.4 37.4-37.4 11.2 0 21.2 4.9 28 12.7 5.8 6.6 9.4 15.3 9.4 24.8C238.6 215.1 221.8 231.9 201.2 231.9z" fill="#ffffff" data-fill-palette-color="quaternary"></path><path d="M628.3 366.7c-0.1 0.3-0.2 0.5-0.3 0.8l-10.7 24.8c0 0 0 0.1-0.1 0.1L628.3 366.7z" fill="#ffffff" data-fill-palette-color="quaternary"></path><path d="M545.3 279.8L387.9 212c-6.1-2.6-8.9-9.7-6.3-15.8l21-48.7c2.6-6.1 9.7-8.9 15.8-6.3l157.4 67.8c6.1 2.6 8.9 9.7 6.3 15.8l-21 48.7C558.5 279.6 551.4 282.4 545.3 279.8z" fill="#ffffff" data-fill-palette-color="quaternary"></path><path d="M614.5 397.2c-6.7 9.2-19.2 12.9-30.1 8.3l-24.8-10.7c-0.7-0.3-1.5-0.7-2.2-1.1l27.1 11.7C595.4 410 607.8 406.4 614.5 397.2z" fill="#ffffff" data-fill-palette-color="quaternary"></path><path d="M630.3 632.5l-24.9-10.6c0 0-0.1 0-0.1-0.1L630.3 632.5z" fill="#ffffff" data-fill-palette-color="quaternary"></path><path d="M717.5 549.4l67.1-157.7c2.6-6.1 9.7-8.9 15.7-6.3l48.7 20.7c6.1 2.6 8.9 9.7 6.3 15.7l-67.1 157.7c-2.6 6.1-9.7 8.9-15.7 6.3l-48.7-20.7C717.8 562.5 714.9 555.4 717.5 549.4z" fill="#ffffff" data-fill-palette-color="quaternary"></path><path d="M597 616.1c0.1 0.1 0.1 0.1 0.2 0.2C597.2 616.2 597.1 616.2 597 616.1 597.1 616.1 597.1 616.1 597 616.1z" fill="#ffffff" data-fill-palette-color="quaternary"></path><path d="M597.2 616.2c0.3 0.3 0.5 0.6 0.8 0.8C597.7 616.8 597.5 616.5 597.2 616.2z" fill="#ffffff" data-fill-palette-color="quaternary"></path><path d="M596.1 615c0.3 0.4 0.6 0.7 0.9 1-6.7-7-9-17.6-5-27l10.6-24.9c0.3-0.7 0.7-1.4 1.1-2.1l-11.5 27.1c-1.5 3.6-2.2 7.4-2 11.1 0 0.3 0 0.5 0.1 0.7 0 0.3 0 0.5 0.1 0.8 0 0 0 0.1 0 0.1 0.1 0.4 0.1 0.9 0.2 1.3 0.1 0.4 0.1 0.8 0.2 1.2 0 0.2 0.1 0.4 0.2 0.6 0.1 0.4 0.2 0.7 0.3 1 0.1 0.4 0.2 0.8 0.4 1.2 0 0.2 0.1 0.3 0.2 0.5 0.1 0.4 0.3 0.8 0.5 1.1 0.2 0.4 0.3 0.7 0.5 1.1 0.1 0.2 0.2 0.5 0.4 0.7 0 0.1 0.1 0.2 0.1 0.3 0.2 0.3 0.3 0.6 0.5 0.8 0.1 0.3 0.3 0.5 0.5 0.7 0.2 0.3 0.4 0.7 0.7 1 0.2 0.2 0.3 0.5 0.5 0.7C595.6 614.4 595.8 614.7 596.1 615z" fill="#ffffff" data-fill-palette-color="quaternary"></path><path d="M599.3 618.2c-0.4-0.4-0.8-0.7-1.2-1.1C598.4 617.4 598.8 617.8 599.3 618.2z" fill="#ffffff" data-fill-palette-color="quaternary"></path><path d="M375.8 610.9L365 636.6c0.1-0.2 0.2-0.5 0.3-0.7l10.5-24.9C375.8 610.9 375.8 610.9 375.8 610.9z" fill="#ffffff" data-fill-palette-color="quaternary"></path><path d="M448.8 722.8l158 66.4c6.1 2.6 9 9.6 6.4 15.7l-20.5 48.8c-2.6 6.1-9.6 9-15.7 6.4l-158-66.4c-6.1-2.6-9-9.6-6.4-15.7l20.5-48.8C435.6 723.1 442.7 720.2 448.8 722.8z" fill="#ffffff" data-fill-palette-color="quaternary"></path><path d="M435.5 609l-27.1-11.4c-9.7-4-20.6-1.5-27.5 5.6 6.9-7.2 17.9-9.8 27.6-5.7l24.9 10.5C434.2 608.3 434.9 608.6 435.5 609z" fill="#ffffff" data-fill-palette-color="quaternary"></path><path d="M385.7 381.4l-26-10.8c0.3 0.1 0.6 0.2 0.9 0.4l25 10.4C385.7 381.3 385.7 381.3 385.7 381.4z" fill="#ffffff" data-fill-palette-color="quaternary"></path><path d="M274.1 454.8l-65.7 158.3c-2.5 6.1-9.6 9-15.7 6.5l-48.9-20.3c-6.1-2.5-9-9.6-6.5-15.7L203 425.4c2.5-6.1 9.6-9 15.7-6.5l48.9 20.3C273.8 441.7 276.7 448.7 274.1 454.8z" fill="#ffffff" data-fill-palette-color="quaternary"></path><g fill="#ffffff" data-fill-palette-color="quaternary"><path d="M798.8 133c-38.1 0-69.2 31-69.2 69.1 0 13.9 4.1 26.8 11.2 37.6L603.7 562l-11.5 27.1c-1.5 3.6-2.2 7.4-2 11.1 0 0.2 0 0.5 0.1 0.7 0 0.3 0 0.5 0.1 0.8 0 0 0 0.1 0 0.1 0.1 0.4 0.1 0.9 0.2 1.3 0.1 0.4 0.1 0.8 0.2 1.2 0 0.2 0.1 0.4 0.2 0.6 0.1 0.4 0.2 0.7 0.3 1 0.1 0.4 0.2 0.8 0.4 1.2 0 0.2 0.1 0.3 0.2 0.5 0.1 0.4 0.3 0.8 0.5 1.1 0.2 0.4 0.3 0.7 0.5 1.1 0.1 0.2 0.2 0.5 0.4 0.7 0 0.1 0.1 0.2 0.1 0.3 0.2 0.3 0.3 0.6 0.5 0.8 0.1 0.3 0.3 0.5 0.5 0.7 0.2 0.3 0.4 0.7 0.7 1 0.2 0.2 0.3 0.5 0.5 0.7 0.3 0.3 0.5 0.6 0.8 1 0.2 0.2 0.3 0.4 0.5 0.6 0.1 0.1 0.1 0.1 0.2 0.2 0.1 0.1 0.1 0.1 0.2 0.2 0.1 0.1 0.1 0.1 0.1 0.1 0.7 0.7 1.4 1.4 2.2 2 0 0 0 0 0 0 0.4 0.3 0.8 0.6 1.2 0.9 1.5 1.1 3.1 2 4.8 2.7l25 10.7 1.2 0.5 107.7 45.8c12.6 5.4 27.4-0.6 32.7-13.2l10.6-24.9c5.4-12.6-0.6-27.3-13.2-32.7l-85.9-36.5 128.2-301.3c32.1-6 56.4-34.2 56.4-68C868 164 837 133 798.8 133zM826.1 227.7c-6.8 7.3-16.5 11.8-27.3 11.8-20.6 0-37.4-16.8-37.4-37.4 0-0.7 0-1.5 0.1-2.2v0c1.1-19.6 17.4-35.2 37.4-35.2 20.6 0 37.4 16.8 37.4 37.4C836.3 212 832.4 221 826.1 227.7z" fill="#ffffff" data-fill-palette-color="quaternary"></path></g><g fill="#ffffff" data-fill-palette-color="quaternary"><path d="M392.1 385.2c-1.9-1.6-4-2.9-6.3-3.8l-26-10.8-0.3-0.1-108.1-44.8c-12.7-5.3-27.4 0.8-32.6 13.5l-10.4 25c-5.3 12.7 0.8 27.4 13.5 32.6l86.2 35.8L181.7 737.2c-28.7 8.4-49.7 35-49.7 66.4 0 38.1 31 69.2 69.2 69.2 38.1 0 69.2-31 69.2-69.2 0-16.2-5.6-31.1-15-42.9l132.5-319.5c0.4-0.7 0.7-1.4 1-2.1l10.4-25C403.5 403.7 400.3 392 392.1 385.2zM201.2 841c-20.6 0-37.4-16.8-37.4-37.4 0-7.6 2.3-14.6 6.1-20.5 6.7-10.2 18.2-16.9 31.3-16.9 19.3 0 35.2 14.7 37.2 33.5v0c0.1 1.3 0.2 2.6 0.2 3.9C238.6 824.2 221.8 841 201.2 841z" fill="#ffffff" data-fill-palette-color="quaternary"></path></g><g fill="#ffffff" data-fill-palette-color="quaternary"><path d="M795 736.3c-12.5 0-24.3 3.4-34.5 9.2L435.5 609l-27.1-11.4c-9.7-4-20.6-1.5-27.5 5.6-2.1 2.2-3.9 4.7-5.1 7.7L365 636.6 319.5 745c-5.3 12.7 0.7 27.4 13.3 32.7l24.9 10.5c12.7 5.3 27.4-0.7 32.7-13.3l36.2-86.1 299.9 126c4.5 33.8 33.5 59.9 68.5 59.9 38.1 0 69.2-31 69.2-69.2C864.2 767.4 833.2 736.3 795 736.3zM795 842.9c-11.3 0-21.4-5-28.2-12.9h0c-5.7-6.6-9.2-15.2-9.2-24.5 0-20.6 16.8-37.4 37.4-37.4 1.9 0 3.7 0.1 5.6 0.4 18 2.7 31.9 18.3 31.9 37C832.5 826.1 815.7 842.9 795 842.9z" fill="#ffffff" data-fill-palette-color="quaternary"></path></g></g></svg></g></svg></g><g></g></svg></g></svg></g></svg></g></svg></g><defs></defs></svg><rect width="342.85155851775386" height="342.85155851775386" fill="none" stroke="none" visibility="hidden"></rect></g></svg></g></svg>